<svg xmlns="http://www.w3.org/2000/svg" viewBox="0 0 100 100">
  <circle cx="50" cy="50" r="50" fill="#0C9DA4"/>
  <circle cx="50" cy="50" r="46.5" fill="none" stroke="white" stroke-width="2.5" opacity="0.7"/>
  <circle cx="50" cy="50" r="41.5" fill="none" stroke="white" stroke-width="1" opacity="0.28"/>
  <circle cx="48" cy="20" r="9.5" fill="white"/>
  <path fill="white" d="M43 29 C46 26,55 27,58 32 C62 36,67 44,70 54 C72 63,69 72,63 77 C59 82,52 85,46 84 C40 83,33 79,32 72 C31 65,33 57,35 50 C37 43,40 37,43 32 Z"/>
  <circle cx="62" cy="57" r="9.5" fill="#0C9DA4" opacity="0.44"/>
  <circle cx="64" cy="46" r="5.5" fill="#0C9DA4" opacity="0.42"/>
</svg>
